# xmcd
#
# Track frame offsets:
#	187
#	8100
#	21562
#	35887
#	46050
#	59362
#	77812
#	91575
#	109162
#	120075
#	133912
#	148275
#
# Disc length: 2107 seconds
# Revision: 2
# Processed by: cddbd v1.5.2PL0 Copyright (c) Steve Scherf et al.
# Submitted via: dBpowerAMP V12.0
#
DISCID=a008390c
DTITLE=Riders In The Sky - Cowboy Jubilee
DYEAR=1991
DGENRE=Country
TTITLE0=Cowboy Jubilee
TTITLE1=Ol' Cowpoke
TTITLE2=Compadres In The Old Sierra Madres
TTITLE3=Back In The Saddle Again
TTITLE4=Desperado Trail
TTITLE5=Red River Valley
TTITLE6=Ride With The Wind
TTITLE7=Soon As The Roundup's Through
TTITLE8=On The Rhythm Range
TTITLE9=Riding Alone
TTITLE10=Ojo Caliente
TTITLE11=At The End Of The Rainbow Trail
EXTD=
EXTT0=
EXTT1=
EXTT2=
EXTT3=
EXTT4=
EXTT5=
EXTT6=
EXTT7=
EXTT8=
EXTT9=
EXTT10=
EXTT11=
PLAYORDER=
